<svg width="48" height="48" viewBox="0 0 48 48" fill="none" xmlns="http://www.w3.org/2000/svg">
<circle cx="24" cy="24" r="23" transform="rotate(-90 24 24)" stroke="#141415" stroke-width="2"/>
<g clip-path="url(#clip0_50_17)">
<path d="M24.0079 25L21.6099 31.594C21.0049 33.258 22.2369 35.017 24.0079 35.017C25.7779 35.017 27.0109 33.258 26.4059 31.594L24.0079 25Z" fill="#1D1D1B"/>
<path d="M23.3073 24.71L16.9493 27.677C15.3453 28.426 14.9723 30.541 16.2243 31.793C17.4763 33.045 19.5913 32.672 20.3403 31.068L23.3073 24.71V24.71Z" fill="#1D1D1B"/>
<path d="M23.017 24.008L16.423 21.61C14.759 21.006 13 22.238 13 24.008C13 25.779 14.759 27.011 16.423 26.406L23.017 24.008V24.008Z" fill="#1D1D1B"/>
<path d="M23.3073 23.307L20.3403 16.95C19.5913 15.346 17.4763 14.973 16.2243 16.225C14.9723 17.477 15.3453 19.592 16.9493 20.341L23.3073 23.308V23.307Z" fill="#1D1D1B"/>
<path d="M24.0079 23.017L26.4059 16.423C27.0109 14.759 25.7789 13 24.0079 13C22.2379 13 21.0059 14.759 21.6109 16.423L24.0089 23.017H24.0079Z" fill="#1D1D1B"/>
<path d="M24.709 23.307L31.067 20.34C32.671 19.591 33.044 17.476 31.792 16.224C30.54 14.972 28.425 15.345 27.676 16.949L24.709 23.307V23.307Z" fill="#1D1D1B"/>
<path d="M25 24.008L31.594 26.406C33.258 27.011 35.017 25.779 35.017 24.008C35.017 22.237 33.258 21.005 31.594 21.61L25 24.008Z" fill="#1D1D1B"/>
<path d="M24.709 24.71L27.676 31.068C28.425 32.672 30.54 33.045 31.792 31.793C33.044 30.541 32.671 28.426 31.067 27.677L24.709 24.71V24.71Z" fill="#1D1D1B"/>
</g>
<defs>
<clipPath id="clip0_50_17">
<rect width="22.017" height="22.017" fill="white" transform="translate(13 13)"/>
</clipPath>
</defs>
</svg>
