<svg xmlns="http://www.w3.org/2000/svg" viewBox="0 0 31.88 21.46"><defs><style>.cls-1{fill:#1ad697;}</style></defs><g id="Calque_2" data-name="Calque 2"><g id="Calque_1-2" data-name="Calque 1"><path class="cls-1" d="M1.07,0H0V14.47H5.34V13.2H1.27V1.27H7V18.76c0,.86-.44,1.33-1.2,1.33A2.56,2.56,0,0,1,4,19.16l-.68,1.08a3.12,3.12,0,0,0,2.47,1.22A2.42,2.42,0,0,0,8.4,18.81V0H1.07Z"/><path class="cls-1" d="M30.55,3h-3V7.92a2.07,2.07,0,0,1-2.22,2.26H13.93a2.09,2.09,0,0,1-2.25-2.26V4H10.26V7.92a3.33,3.33,0,0,0,3.66,3.54H25.29a3.32,3.32,0,0,0,3.64-3.54V4.27h1.62V13.2H10v1.27H31.88V3H30.55Z"/></g></g></svg>