<svg width="42" height="29" viewBox="0 0 42 29" fill="none" xmlns="http://www.w3.org/2000/svg">
<g clip-path="url(#clip0_46_906)">
<path d="M1.40966 0H0V19.0634H7.03513V17.3902H1.67315V1.67315H9.22208V24.7152C9.22208 25.8482 8.64241 26.4674 7.64116 26.4674C7.18332 26.4353 6.73685 26.31 6.32909 26.0993C5.92134 25.8887 5.56087 25.597 5.26976 25.2422L4.3739 26.665C4.75709 27.1641 5.24976 27.5686 5.81394 27.8472C6.37811 28.1259 6.99874 28.2713 7.62798 28.2723C8.09396 28.3113 8.5628 28.2473 9.00129 28.0848C9.43978 27.9224 9.83716 27.6655 10.1653 27.3324C10.4934 26.9992 10.7442 26.598 10.9 26.1571C11.0557 25.7161 11.1126 25.2464 11.0665 24.7811V0H1.40966Z" fill="#F7F7F8"/>
<path d="M40.2482 3.95215H36.2959V10.434C36.3336 10.8298 36.2842 11.2291 36.1513 11.6038C36.0184 11.9786 35.8052 12.3198 35.5265 12.6034C35.2479 12.8871 34.9106 13.1064 34.5383 13.2459C34.166 13.3855 33.7676 13.442 33.3712 13.4114H18.3523C17.9538 13.4434 17.5531 13.3883 17.178 13.2498C16.8029 13.1113 16.4625 12.8928 16.1804 12.6094C15.8983 12.3261 15.6813 11.9847 15.5445 11.609C15.4077 11.2333 15.3543 10.8324 15.3881 10.434V5.26959H13.5173V10.434C13.4738 11.0714 13.5699 11.7106 13.7991 12.307C14.0283 12.9033 14.385 13.4425 14.8442 13.8866C15.3034 14.3308 15.8541 14.6693 16.4578 14.8785C17.0615 15.0877 17.7036 15.1625 18.3392 15.0977H33.3185C33.9525 15.1607 34.5926 15.0845 35.1941 14.8743C35.7955 14.6641 36.3438 14.325 36.8006 13.8808C37.2573 13.4366 37.6115 12.898 37.8384 12.3026C38.0652 11.7072 38.1593 11.0695 38.114 10.434V5.6253H40.2482V17.39H13.1748V19.0632H42.0004V3.95215H40.2482Z" fill="#F7F7F8"/>
</g>
<defs>
<clipPath id="clip0_46_906">
<rect width="42" height="28.2723" fill="white"/>
</clipPath>
</defs>
</svg>
