<svg width="42" height="30" viewBox="0 0 42 30" fill="none" xmlns="http://www.w3.org/2000/svg">
<g clip-path="url(#clip0_42_889)">
<path d="M1.40966 0.863892H0V19.9273H7.03513V18.2541H1.67315V2.53704H9.22208V25.5791C9.22208 26.7121 8.64241 27.3313 7.64116 27.3313C7.18332 27.2991 6.73685 27.1739 6.32909 26.9632C5.92134 26.7526 5.56087 26.4609 5.26976 26.106L4.3739 27.5289C4.75709 28.028 5.24976 28.4325 5.81394 28.7111C6.37811 28.9898 6.99874 29.1352 7.62798 29.1362C8.09396 29.1751 8.5628 29.1112 9.00129 28.9487C9.43978 28.7863 9.83716 28.5294 10.1653 28.1963C10.4934 27.8631 10.7442 27.4619 10.9 27.0209C11.0557 26.58 11.1126 26.1103 11.0665 25.6449V0.863892H1.40966Z" fill="#141415"/>
<path d="M40.2482 4.81616H36.2959V11.298C36.3336 11.6938 36.2842 12.0931 36.1513 12.4678C36.0184 12.8426 35.8052 13.1838 35.5265 13.4674C35.2479 13.7511 34.9106 13.9704 34.5383 14.11C34.166 14.2495 33.7676 14.306 33.3712 14.2754H18.3523C17.9538 14.3074 17.5531 14.2523 17.178 14.1138C16.8029 13.9753 16.4625 13.7568 16.1804 13.4735C15.8983 13.1901 15.6813 12.8487 15.5445 12.473C15.4077 12.0973 15.3543 11.6964 15.3881 11.298V6.1336H13.5173V11.298C13.4738 11.9354 13.5699 12.5746 13.7991 13.171C14.0283 13.7674 14.385 14.3065 14.8442 14.7507C15.3034 15.1948 15.8541 15.5333 16.4578 15.7425C17.0615 15.9517 17.7036 16.0265 18.3392 15.9617H33.3185C33.9525 16.0247 34.5926 15.9485 35.1941 15.7383C35.7955 15.5281 36.3438 15.1891 36.8006 14.7448C37.2573 14.3006 37.6115 13.762 37.8384 13.1666C38.0652 12.5712 38.1593 11.9335 38.114 11.298V6.48931H40.2482V18.2541H13.1748V19.9272H42.0004V4.81616H40.2482Z" fill="#141415"/>
</g>
<defs>
<clipPath id="clip0_42_889">
<rect width="42" height="28.2723" fill="white" transform="translate(0 0.863892)"/>
</clipPath>
</defs>
</svg>
